<svg id="Layer_1" data-name="Layer 1" xmlns="http://www.w3.org/2000/svg" viewBox="0 0 1201.88 759.76"><defs><style>.cls-1{opacity:0.87;}.cls-2{fill:#a0ce4e;}</style></defs><title>Untitled-1</title><g class="cls-1"><path class="cls-2" d="M383,763.38A379.48,379.48,0,0,1,235.33,34.43,379.48,379.48,0,0,1,530.67,733.57,377,377,0,0,1,383,763.38Z" transform="translate(-3.12 -4.12)"/><path class="cls-2" d="M383,5.12a379,379,0,0,1,147.48,728,379,379,0,0,1-295-698.22A376.63,376.63,0,0,1,383,5.12m0-1C173.2,4.12,3.12,174.2,3.12,384S173.2,763.88,383,763.88,762.88,593.8,762.88,384,592.8,4.12,383,4.12Z" transform="translate(-3.12 -4.12)"/></g><g class="cls-1"><path class="cls-2" d="M825.12,763.38A379.48,379.48,0,0,1,677.45,34.43,379.48,379.48,0,0,1,972.79,733.57,377.06,377.06,0,0,1,825.12,763.38Z" transform="translate(-3.12 -4.12)"/><path class="cls-2" d="M825.12,5.12a379,379,0,0,1,147.48,728,379,379,0,0,1-295-698.22A376.63,376.63,0,0,1,825.12,5.12m0-1C615.32,4.12,445.24,174.2,445.24,384S615.32,763.88,825.12,763.88,1205,593.8,1205,384,1034.92,4.12,825.12,4.12Z" transform="translate(-3.12 -4.12)"/></g></svg>