<svg id="Layer_1" data-name="Layer 1" xmlns="http://www.w3.org/2000/svg" viewBox="0 0 1201.88 759.76"><defs><style>.cls-1{opacity:0.72;}.cls-2{fill:#a0ce4e;}</style></defs><title>venn3</title><g class="cls-1"><path class="cls-2" d="M379.88,759.26C170.3,759.13.51,589.13.63,379.55A379.5,379.5,0,0,1,232.21,30.31c193.06-81.56,415.68,8.84,497.24,201.9s-8.84,415.68-201.9,497.24h0A377,377,0,0,1,379.88,759.26Z"/><path class="cls-2" d="M379.88,1c209.32.17,378.86,170,378.7,379.3A379,379,0,0,1,527.36,729C334,809.12,112.27,717.31,32.15,523.93-47.18,332.46,42,112.77,232.36,30.78A376.6,376.6,0,0,1,379.88,1m0-1C170.08,0,0,170.08,0,379.88S170.08,759.76,379.88,759.76,759.76,589.68,759.76,379.88,589.68,0,379.88,0Z"/></g><g class="cls-1"><path class="cls-2" d="M822,759.26c-209.58-.13-379.37-170.13-379.25-379.71A379.5,379.5,0,0,1,674.33,30.31c193.06-81.56,415.68,8.84,497.24,201.9s-8.84,415.68-201.9,497.24A377,377,0,0,1,822,759.26Z"/><path class="cls-2" d="M822,1c209.32.17,378.86,170,378.7,379.3A379,379,0,0,1,969.48,729C776.1,809.12,554.39,717.31,474.27,523.93c-79.33-191.47,9.86-411.16,200.21-493.15A376.6,376.6,0,0,1,822,1m0-1C612.2,0,442.12,170.08,442.12,379.88S612.2,759.76,822,759.76s379.88-170.08,379.88-379.88S1031.8,0,822,0Z"/></g></svg>