<svg id="Layer_1" data-name="Layer 1" xmlns="http://www.w3.org/2000/svg" viewBox="0 0 676 428"><defs><style>.cls-1{opacity:0.87;}.cls-2{fill:#a0ce4e;}</style></defs><title>Venn</title><g class="cls-1"><circle class="cls-2" cx="214" cy="214" r="213.5"/><path class="cls-2" d="M560,196a212.31,212.31,0,1,1-82.91,16.74A211.6,211.6,0,0,1,560,196m0-1c-118.19,0-214,95.81-214,214s95.81,214,214,214,214-95.81,214-214S678.19,195,560,195Z" transform="translate(-346 -195)"/></g><g class="cls-1"><circle class="cls-2" cx="462" cy="214" r="213.5"/><path class="cls-2" d="M808,196a212.31,212.31,0,1,1-82.91,16.74A211.6,211.6,0,0,1,808,196m0-1c-118.19,0-214,95.81-214,214s95.81,214,214,214,214-95.81,214-214S926.19,195,808,195Z" transform="translate(-346 -195)"/></g></svg>